<svg width="96" height="96" xmlns="http://www.w3.org/2000/svg" xmlns:xlink="http://www.w3.org/1999/xlink" xml:space="preserve" overflow="hidden"><g transform="translate(-592 -312)"><path d="M626.3 367 630.91 359C629.711 358.407 628.575 357.693 627.52 356.87L622.52 365.54C623.837 365.865 625.107 366.355 626.3 367Z" fill="#8FAADC"/><path d="M645.21 384C645.074 383.173 645.004 382.338 645 381.5 645.001 380.999 645.028 380.498 645.08 380L634.92 380C634.972 380.498 634.999 380.999 635 381.5 634.996 382.338 634.926 383.173 634.79 384Z" fill="#8FAADC"/><path d="M653 367.41C654.147 366.705 655.376 366.144 656.66 365.74L651.53 356.85C650.46 357.683 649.307 358.403 648.09 359Z" fill="#8FAADC"/><path d="M618.5 369C611.596 369 606 374.596 606 381.5 606 388.404 611.596 394 618.5 394 625.404 394 631 388.404 631 381.5 631 374.596 625.404 369 618.5 369ZM618.5 373.87C620.438 373.865 622.015 375.431 622.02 377.37 622.026 379.309 620.458 380.884 618.52 380.89 616.581 380.896 615.005 379.328 615 377.39 615 377.383 615 377.377 615 377.37 615.005 375.439 616.569 373.875 618.5 373.87ZM625.5 387.93 611.5 387.93 611.5 385.26C611.513 384.712 611.77 384.199 612.2 383.86 613.238 383.115 614.394 382.55 615.62 382.19 616.56 381.917 617.531 381.769 618.51 381.75 619.49 381.756 620.463 381.904 621.4 382.19 622.64 382.512 623.803 383.08 624.82 383.86 625.25 384.199 625.507 384.712 625.52 385.26Z" fill="#8FAADC"/><path d="M655 341.5C655 332.94 648.06 326 639.5 326 630.94 326 624 332.94 624 341.5 624 350.06 630.94 357 639.5 357 648.06 357 655 350.06 655 341.5ZM639.47 332C641.872 332 643.82 333.948 643.82 336.35 643.82 338.752 641.872 340.7 639.47 340.7 637.068 340.7 635.12 338.752 635.12 336.35 635.125 333.95 637.07 332.005 639.47 332ZM648.15 349.44 630.78 349.44 630.78 346.1C630.793 345.418 631.112 344.779 631.65 344.36 632.931 343.436 634.362 342.739 635.88 342.3 637.047 341.959 638.255 341.778 639.47 341.76 640.683 341.762 641.89 341.944 643.05 342.3 644.586 342.7 646.027 343.4 647.29 344.36 647.822 344.783 648.137 345.421 648.15 346.1Z" fill="#8FAADC"/><path d="M661.5 369C654.596 369 649 374.596 649 381.5 649 388.404 654.596 394 661.5 394 668.404 394 674 388.404 674 381.5 674 374.596 668.404 369 661.5 369ZM661.5 373.87C663.438 373.865 665.015 375.431 665.02 377.37 665.026 379.309 663.458 380.884 661.52 380.89 659.581 380.896 658.005 379.328 658 377.39 658 377.383 658 377.377 658 377.37 658.005 375.439 659.569 373.875 661.5 373.87ZM668.5 387.93 654.5 387.93 654.5 385.26C654.513 384.712 654.77 384.199 655.2 383.86 656.238 383.115 657.394 382.55 658.62 382.19 659.56 381.917 660.531 381.769 661.51 381.75 662.49 381.756 663.463 381.904 664.4 382.19 665.64 382.512 666.803 383.08 667.82 383.86 668.25 384.199 668.507 384.712 668.52 385.26Z" fill="#8FAADC"/></g></svg>